# xmcd
#
# Track frame offsets:
# 150
# 20312
# 43362
# 63990
# 82965
# 105425
# 123350
# 144250
# 162550
# 173837
# 198000
# 217737
# 240275
# 257250
# 267287
# 291100
#
# Disc length: 4163 seconds
#
#
# Revision: 0
# Processed by: cddbd v1.5.1PL0 Copyright (c) Steve Scherf et al.
# Submitted via: FreeRIP 2.93 
#
DISCID=cd104110
DTITLE=梅艷芳 - 是這樣的
DYEAR=1900
DGENRE=Love Songs
TTITLE0=情歸何處
TTITLE1=感激
TTITLE2=請你快回來
TTITLE3=愛是個傳奇
TTITLE4=悲情城市
TTITLE5=如夜
TTITLE6=蝶舞
TTITLE7=愛情來了報佳音
TTITLE8=是這樣的
TTITLE9=朦朧夜雨裹
TTITLE10=女人心
TTITLE11=親密愛人
TTITLE12=歌衫淚影
TTITLE13=胭脂扣
TTITLE14=似水流年
TTITLE15=莫問一生
EXTD=
EXTT0=
EXTT1=
EXTT2=
EXTT3=
EXTT4=
EXTT5=
EXTT6=
EXTT7=
EXTT8=
EXTT9=
EXTT10=
EXTT11=
EXTT12=
EXTT13=
EXTT14=
EXTT15=
PLAYORDER=
